<svg width="512" height="512" viewBox="0 0 512 512" fill="none" xmlns="http://www.w3.org/2000/svg">
<g clip-path="url(#clip0_37_5)">
<path d="M398.524 424.095C379.386 402.684 359.645 381.372 347.593 354.932C332.64 333.509 316.904 311.952 306.367 288.035C303.587 275.46 301.316 269.891 299.252 285.938C295.539 308.111 288.806 331.256 294.561 353.525C304.373 369.733 313.485 386.445 315.617 405.623C322.573 435.017 326.108 465.476 319.6 495.448C312.837 526.587 306.624 558.075 299.67 589.035C296.967 616.714 302.973 644.31 300.093 671.9C298.01 683.287 293.969 694.256 298.31 705.562C301.793 719.706 299.994 735.54 304.944 748.888C313.635 756.117 324.289 765.822 318.605 778.342C312.554 800.236 331.492 819.933 328.687 842.073C332.353 858.835 308.66 865.764 299.749 852.432C292.052 842.972 287.578 829.93 285.624 818.338C285.778 801.225 291.957 783.582 282.387 767.856C280.167 754.219 277.053 748.397 272.843 765.183C263.159 784.335 269.266 806.263 263.843 826.37C263.867 840.438 266.377 859.327 250.093 865.464C241.796 864.201 235.24 866.929 227.274 867.119C219.923 868.182 209.598 864.499 216.077 853.353C220.629 838.431 229.666 824.941 232.201 809.198C235.739 795.835 239.15 782.82 245.2 770.381C249.759 739.592 249.395 707.973 249.712 676.937C245.064 660.768 236.714 645.815 232.861 629.302C228.51 610.737 234.061 590.2 223.688 572.752C207.995 531.951 185.01 493.013 178.884 449.242C178.369 430.809 184.519 413.389 187.702 395.572C188.877 374.873 200.843 354.644 194.374 333.872C188.459 349.456 185.678 366.881 172.45 378.234C152.093 401.641 134.112 427.989 108.499 446.028C99.1212 450.304 86.13 445.633 81.53 457.434C64.83 468.351 78.4549 443.916 84.3916 440.959C73.0626 436.772 63.9686 448.411 52.2346 445.787C37.7256 448.883 36.8516 438.978 52.0616 439.403C65.9706 437.034 77.9876 427.109 92.9466 429.647C109.128 433.164 115.014 413.97 123.949 404.347C138.46 384.482 146.304 360.904 159.735 340.467C171.999 310.417 176.409 277.411 178.059 245.13C177.35 233.742 179.277 216.669 194.936 218.34C208.063 217.452 222.254 216.76 227.126 200.946C230.798 190.103 223.219 180.545 220.623 170.652C222.225 162.248 205.937 161.472 210.481 147.794C199.779 126.134 216.069 101.526 234.217 91.1833C249.569 88.9873 269.903 84.9914 280.092 99.9333C287.959 121.329 295.149 146.76 280.998 167.277C271.743 168.22 270.122 182.534 267.779 190.308C264.624 211.243 290.69 213.462 306.51 212.946C323.046 214.599 323.652 234.757 329.312 246.835C338.771 278.251 351.929 309.645 374.936 333.683C383.817 360.345 393.034 387.411 410.061 410.121C424.154 409.75 438.871 409.544 450.749 418.528C461.109 417.206 484.199 427.375 461.468 426.371C450.113 428.885 441.474 420.276 430.744 420.84C419.435 420.091 451.244 443.233 433.437 440.309C426.924 432.395 419.955 427.696 409.213 428.215C405.42 427.351 401.789 426.283 398.524 424.097L398.524 424.095Z" fill="#B3B3B3"/>
</g>
<defs>
<clipPath id="clip0_37_5">
<rect width="512" height="512" fill="white"/>
</clipPath>
</defs>
</svg>
